<svg xmlns="http://www.w3.org/2000/svg" viewBox="0 0 177.48 18.79"><defs><style>.cls-1{fill:#8289c3;}</style></defs><title>taologistics_1</title><g id="Layer_2" data-name="Layer 2"><g id="Layer_10" data-name="Layer 10"><path d="M9.25,18.54H4.39v-14H0v-4H13.63v4H9.25Z"/><path d="M26.61,18.54l-.88-3.37H19.88L19,18.54H13.63L19.5.48H26l5.94,18.06Zm-1.89-7.36-.78-2.95c-.18-.66-.4-1.5-.66-2.55s-.42-1.78-.51-2.24c-.07.42-.22,1.11-.43,2.07s-.7,2.85-1.45,5.67Z"/><path d="M50.08,9.52c0,3-.75,5.33-2.23,6.91s-3.66,2.36-6.52,2.36a8.49,8.49,0,0,1-6.49-2.38c-1.51-1.58-2.26-3.89-2.26-6.91s.75-5.28,2.24-6.86S38.5.27,41.35.27s5,.78,6.51,2.35S50.08,6.49,50.08,9.52Zm-12.38,0q0,5.22,3.63,5.22a3.09,3.09,0,0,0,2.73-1.27,6.88,6.88,0,0,0,.9-4,7,7,0,0,0-.91-4,3.07,3.07,0,0,0-2.7-1.28Q37.71,4.26,37.7,9.52Z"/><path class="cls-1" d="M54,18.27V.28h4.86V14.35h6.93v3.92Z"/><path class="cls-1" d="M84.89,9.25q0,4.54-2.23,6.91c-1.48,1.57-3.66,2.36-6.52,2.36a8.52,8.52,0,0,1-6.49-2.38q-2.27-2.37-2.26-6.91c0-3,.75-5.28,2.25-6.86S73.31,0,76.17,0s5,.78,6.5,2.35S84.89,6.22,84.89,9.25Zm-12.38,0q0,5.22,3.63,5.22a3.12,3.12,0,0,0,2.74-1.27,7,7,0,0,0,.89-3.95,7,7,0,0,0-.9-4A3.11,3.11,0,0,0,76.17,4Q72.51,4,72.51,9.25Z"/><path class="cls-1" d="M94.73,7.74h7.77v9.7a21.44,21.44,0,0,1-7,1.08,8.45,8.45,0,0,1-6.43-2.41q-2.27-2.41-2.27-6.88a9,9,0,0,1,2.49-6.78,9.54,9.54,0,0,1,7-2.43A15.67,15.67,0,0,1,99.5.34a14.09,14.09,0,0,1,2.63.82L100.59,5a9.52,9.52,0,0,0-4.27-1A4,4,0,0,0,93,5.4a6,6,0,0,0-1.17,3.95,6,6,0,0,0,1.06,3.85,3.64,3.64,0,0,0,3,1.32,8.87,8.87,0,0,0,2-.21V11.49H94.73Z"/><path class="cls-1" d="M105.53,18.27V.28h4.89v18Z"/><path class="cls-1" d="M125.44,12.81a5.27,5.27,0,0,1-.85,3,5.54,5.54,0,0,1-2.45,2,9.09,9.09,0,0,1-3.75.72,16,16,0,0,1-3-.25,11.76,11.76,0,0,1-2.53-.88V13.06a15.12,15.12,0,0,0,2.89,1.11,10.63,10.63,0,0,0,2.76.4,2.64,2.64,0,0,0,1.58-.38,1.14,1.14,0,0,0,.51-1,1.11,1.11,0,0,0-.2-.65,2.59,2.59,0,0,0-.66-.56,26,26,0,0,0-2.39-1.15,11.88,11.88,0,0,1-2.64-1.56,4.65,4.65,0,0,1-1.3-1.72,5.59,5.59,0,0,1-.43-2.3,4.58,4.58,0,0,1,1.81-3.87,8,8,0,0,1,5-1.4,14,14,0,0,1,5.7,1.3L124,5.07a10.8,10.8,0,0,0-4.36-1.16,2.17,2.17,0,0,0-1.37.34,1,1,0,0,0-.43.82,1.2,1.2,0,0,0,.54.95,21.82,21.82,0,0,0,3,1.52,8.23,8.23,0,0,1,3.23,2.25A4.84,4.84,0,0,1,125.44,12.81Z"/><path class="cls-1" d="M135.53,18.27h-4.86v-14h-4.4v-4h13.64v4h-4.38Z"/><path class="cls-1" d="M141.85,18.27V.28h4.88v18Z"/><path class="cls-1" d="M158,4a3.1,3.1,0,0,0-2.71,1.42,7,7,0,0,0-1,3.92q0,5.19,4,5.19a8.06,8.06,0,0,0,2.31-.33,23.52,23.52,0,0,0,2.26-.8v4.11a12.38,12.38,0,0,1-5.1,1,8.07,8.07,0,0,1-6.24-2.36q-2.17-2.37-2.17-6.83a10.89,10.89,0,0,1,1-4.91,7.53,7.53,0,0,1,3-3.26A9.09,9.09,0,0,1,158.05,0a12.9,12.9,0,0,1,5.58,1.27l-1.49,3.83a16.59,16.59,0,0,0-2-.79A7.05,7.05,0,0,0,158,4Z"/><path class="cls-1" d="M177.48,12.81a5.35,5.35,0,0,1-.85,3,5.54,5.54,0,0,1-2.45,2,9.09,9.09,0,0,1-3.75.72,15.87,15.87,0,0,1-3-.25,11.58,11.58,0,0,1-2.53-.88V13.06a14.87,14.87,0,0,0,2.89,1.11,10.62,10.62,0,0,0,2.75.4,2.66,2.66,0,0,0,1.59-.38,1.14,1.14,0,0,0,.51-1,1.05,1.05,0,0,0-.21-.65,2.36,2.36,0,0,0-.65-.56c-.3-.19-1.1-.57-2.39-1.15a11.88,11.88,0,0,1-2.64-1.56,4.79,4.79,0,0,1-1.31-1.72,5.76,5.76,0,0,1-.42-2.3,4.58,4.58,0,0,1,1.81-3.87,7.94,7.94,0,0,1,5-1.4,14,14,0,0,1,5.7,1.3L176,5.07a10.84,10.84,0,0,0-4.36-1.16,2.22,2.22,0,0,0-1.38.34,1,1,0,0,0-.43.82,1.22,1.22,0,0,0,.55.95,21.82,21.82,0,0,0,3,1.52,8.23,8.23,0,0,1,3.23,2.25A4.84,4.84,0,0,1,177.48,12.81Z"/></g></g></svg>